<svg width="100" height="97" viewBox="0 0 100 97" fill="none" xmlns="http://www.w3.org/2000/svg">
<path d="M21.7949 59.6924H29.4872" stroke="#9A105C" stroke-width="2.09231" stroke-miterlimit="10" stroke-linecap="square"/>
<path d="M67.9482 58.4487H78.2047" stroke="#9A105C" stroke-width="2.09231" stroke-miterlimit="10" stroke-linecap="square"/>
<path d="M73.0771 53.4744V63.4231" stroke="#9A105C" stroke-width="2.09231" stroke-miterlimit="10" stroke-linecap="square"/>
<path d="M50 46.0129L61.5385 34.8206" stroke="#9A105C" stroke-width="2.09231" stroke-miterlimit="10"/>
<path d="M72.9492 46.0128L69.103 23.6282L30.8979 23.6282L27.0518 46.0128" stroke="#9A105C" stroke-width="2.09231" stroke-miterlimit="10"/>
<path d="M80.7689 46.0129L76.41 20.2706C76.0253 17.9078 73.8459 16.1667 71.41 16.1667L28.7176 16.1667C26.1535 16.1667 24.1023 17.9078 23.7176 20.2706L19.2305 46.0129" stroke="#9A105C" stroke-width="2.09231" stroke-miterlimit="10"/>
<path d="M29.4875 70.8845V80.8332H16.667L16.667 70.8845" stroke="#9A105C" stroke-width="2.09231" stroke-miterlimit="10" stroke-linecap="square"/>
<path d="M83.3332 70.8845V80.8332H70.5127V70.8845" stroke="#9A105C" stroke-width="2.09231" stroke-miterlimit="10" stroke-linecap="square"/>
<path d="M88.4612 70.8845L11.5381 70.8845L11.5381 55.5883C11.5381 54.2204 12.0509 52.9768 13.0765 52.1063L19.2304 46.0127L80.7689 46.0127L86.9227 51.9819C87.9483 52.9768 88.4612 54.2204 88.4612 55.464V70.8845Z" stroke="#9A105C" stroke-width="2.09231" stroke-miterlimit="10" stroke-linecap="square"/>
</svg>
