<svg width="100" height="97" viewBox="0 0 100 97" fill="none" xmlns="http://www.w3.org/2000/svg">
<path d="M57.1426 10.3928L57.1426 31.1785L78.5711 31.1785L57.1426 10.3928Z" fill="#9A105C"/>
<path d="M28.5713 31.1785L42.857 31.1785" stroke="#9A105C" stroke-width="2.05714" stroke-miterlimit="10" stroke-linecap="square"/>
<path d="M28.5713 48.5L46.4284 48.5" stroke="#9A105C" stroke-width="2.05714" stroke-miterlimit="10" stroke-linecap="square"/>
<path d="M28.5713 65.8215H42.857" stroke="#9A105C" stroke-width="2.05714" stroke-miterlimit="10" stroke-linecap="square"/>
<path d="M85.7148 83.1429L75.4326 73.1692" stroke="#9A105C" stroke-width="2.05714" stroke-miterlimit="10" stroke-linecap="square"/>
<path d="M67.8569 76.2142C73.7742 76.2142 78.5711 71.5611 78.5711 65.8213C78.5711 60.0815 73.7742 55.4285 67.8569 55.4285C61.9395 55.4285 57.1426 60.0815 57.1426 65.8213C57.1426 71.5611 61.9395 76.2142 67.8569 76.2142Z" stroke="#9A105C" stroke-width="2.05714" stroke-miterlimit="10" stroke-linecap="square"/>
<path d="M57.1426 10.3928L57.1426 31.1785L78.5711 31.1785" stroke="#9A105C" stroke-width="2.05714" stroke-miterlimit="10"/>
<path d="M78.5718 41.5714L78.5718 31.1785L57.1433 10.3928L14.2861 10.3928L14.2861 86.6071L50.0004 86.6071" stroke="#9A105C" stroke-width="2.05714" stroke-miterlimit="10" stroke-linecap="square"/>
</svg>
