<svg width="165" height="65" viewBox="0 0 165 65" fill="none" xmlns="http://www.w3.org/2000/svg">
<rect width="165" height="65" rx="6" fill="url(#paint0_linear_813_9)"/>
<path d="M57.543 39.19C56.593 39.19 55.7127 39.019 54.902 38.677C54.0913 38.3223 53.382 37.8347 52.774 37.214C52.1787 36.5933 51.7163 35.8713 51.387 35.048C51.0577 34.2247 50.893 33.3443 50.893 32.407C50.893 31.457 51.0577 30.5703 51.387 29.747C51.7163 28.9237 52.1787 28.208 52.774 27.6C53.382 26.9793 54.085 26.498 54.883 26.156C55.6937 25.8013 56.574 25.624 57.524 25.624C58.5627 25.624 59.4747 25.8013 60.26 26.156C61.0453 26.5107 61.742 26.992 62.35 27.6L61.115 28.835C60.697 28.3663 60.184 27.999 59.576 27.733C58.9807 27.467 58.2967 27.334 57.524 27.334C56.8273 27.334 56.1877 27.4607 55.605 27.714C55.0223 27.9547 54.5157 28.303 54.085 28.759C53.6543 29.215 53.3187 29.7533 53.078 30.374C52.85 30.9947 52.736 31.6723 52.736 32.407C52.736 33.1417 52.85 33.8193 53.078 34.44C53.3187 35.0607 53.6543 35.599 54.085 36.055C54.5157 36.511 55.0223 36.8657 55.605 37.119C56.1877 37.3597 56.8273 37.48 57.524 37.48C58.3473 37.48 59.063 37.347 59.671 37.081C60.279 36.8023 60.792 36.4287 61.21 35.96L62.445 37.176C61.837 37.8093 61.1213 38.3033 60.298 38.658C59.4873 39.0127 58.569 39.19 57.543 39.19ZM67.8576 39.19C67.0343 39.19 66.287 38.9873 65.6156 38.582C64.9443 38.164 64.4123 37.6003 64.0196 36.891C63.6396 36.1817 63.4496 35.3837 63.4496 34.497C63.4496 33.6103 63.6396 32.8123 64.0196 32.103C64.4123 31.3937 64.938 30.83 65.5966 30.412C66.268 29.994 67.0216 29.785 67.8576 29.785C68.5416 29.785 69.1496 29.9307 69.6816 30.222C70.2263 30.5007 70.6633 30.8933 70.9926 31.4C71.322 31.894 71.5056 32.4703 71.5436 33.129V35.846C71.5056 36.492 71.322 37.0683 70.9926 37.575C70.676 38.0817 70.2453 38.4807 69.7006 38.772C69.1686 39.0507 68.5543 39.19 67.8576 39.19ZM68.1426 37.575C68.9913 37.575 69.6753 37.29 70.1946 36.72C70.714 36.1373 70.9736 35.3963 70.9736 34.497C70.9736 33.8763 70.8533 33.338 70.6126 32.882C70.3846 32.4133 70.0553 32.0523 69.6246 31.799C69.194 31.533 68.6936 31.4 68.1236 31.4C67.5536 31.4 67.047 31.533 66.6036 31.799C66.173 32.065 65.831 32.4323 65.5776 32.901C65.337 33.357 65.2166 33.8827 65.2166 34.478C65.2166 35.086 65.337 35.6243 65.5776 36.093C65.831 36.549 66.1793 36.91 66.6226 37.176C67.066 37.442 67.5726 37.575 68.1426 37.575ZM70.8596 39V36.568L71.1826 34.364L70.8596 32.179V29.975H72.5886V39L70.8596 39ZM81.4622 39V33.737C81.4622 33.053 81.2469 32.4893 80.8162 32.046C80.3856 31.6027 79.8282 31.381 79.1442 31.381C78.6882 31.381 78.2829 31.4823 77.9282 31.685C77.5736 31.8877 77.2949 32.1663 77.0922 32.521C76.8896 32.8757 76.7882 33.281 76.7882 33.737L76.0852 33.338C76.0852 32.654 76.2372 32.046 76.5412 31.514C76.8452 30.982 77.2696 30.564 77.8142 30.26C78.3589 29.9433 78.9732 29.785 79.6572 29.785C80.3412 29.785 80.9429 29.956 81.4622 30.298C81.9942 30.64 82.4122 31.0897 82.7162 31.647C83.0202 32.1917 83.1722 32.7743 83.1722 33.395V39H81.4622ZM75.0782 39V29.975H76.7882V39H75.0782ZM89.6104 39.19C88.7237 39.19 87.9194 38.981 87.1974 38.563C86.4881 38.145 85.9244 37.5813 85.5064 36.872C85.1011 36.15 84.8984 35.352 84.8984 34.478C84.8984 33.5913 85.1011 32.7933 85.5064 32.084C85.9244 31.3747 86.4881 30.8173 87.1974 30.412C87.9194 29.994 88.7237 29.785 89.6104 29.785C90.3071 29.785 90.9531 29.918 91.5484 30.184C92.1437 30.4373 92.6567 30.811 93.0874 31.305L91.9474 32.445C91.6687 32.1157 91.3267 31.8687 90.9214 31.704C90.5287 31.5267 90.0917 31.438 89.6104 31.438C89.0404 31.438 88.5337 31.571 88.0904 31.837C87.6471 32.0903 87.2987 32.445 87.0454 32.901C86.7921 33.357 86.6654 33.8827 86.6654 34.478C86.6654 35.0733 86.7921 35.599 87.0454 36.055C87.2987 36.511 87.6471 36.872 88.0904 37.138C88.5337 37.404 89.0404 37.537 89.6104 37.537C90.0917 37.537 90.5287 37.4547 90.9214 37.29C91.3267 37.1127 91.6751 36.8593 91.9664 36.53L93.0874 37.67C92.6694 38.1513 92.1564 38.525 91.5484 38.791C90.9531 39.057 90.3071 39.19 89.6104 39.19ZM98.7778 39.19C97.8784 39.19 97.0678 38.9873 96.3458 38.582C95.6238 38.164 95.0538 37.6003 94.6358 36.891C94.2178 36.1817 94.0088 35.3773 94.0088 34.478C94.0088 33.5913 94.2114 32.7933 94.6168 32.084C95.0348 31.3747 95.5921 30.8173 96.2888 30.412C96.9981 29.994 97.7898 29.785 98.6638 29.785C99.4998 29.785 100.234 29.975 100.868 30.355C101.514 30.735 102.014 31.2607 102.369 31.932C102.736 32.6033 102.92 33.3633 102.92 34.212C102.92 34.3387 102.913 34.478 102.901 34.63C102.888 34.7693 102.863 34.934 102.825 35.124H95.2058V33.699H101.913L101.286 34.25C101.286 33.642 101.178 33.129 100.963 32.711C100.747 32.2803 100.443 31.951 100.051 31.723C99.6581 31.4823 99.1831 31.362 98.6258 31.362C98.0431 31.362 97.5301 31.4887 97.0868 31.742C96.6434 31.9953 96.3014 32.35 96.0608 32.806C95.8201 33.262 95.6998 33.8003 95.6998 34.421C95.6998 35.0543 95.8264 35.6117 96.0798 36.093C96.3331 36.5617 96.6941 36.929 97.1628 37.195C97.6314 37.4483 98.1698 37.575 98.7778 37.575C99.2844 37.575 99.7468 37.4863 100.165 37.309C100.595 37.1317 100.963 36.8657 101.267 36.511L102.369 37.632C101.938 38.1387 101.406 38.525 100.773 38.791C100.152 39.057 99.4871 39.19 98.7778 39.19ZM104.784 39V25.434H106.494V39H104.784ZM112.834 39.19C112.011 39.19 111.264 38.9873 110.592 38.582C109.921 38.164 109.389 37.6003 108.996 36.891C108.616 36.1817 108.426 35.3837 108.426 34.497C108.426 33.6103 108.616 32.8123 108.996 32.103C109.389 31.3937 109.915 30.83 110.573 30.412C111.245 29.994 111.998 29.785 112.834 29.785C113.518 29.785 114.126 29.9307 114.658 30.222C115.203 30.5007 115.64 30.8933 115.969 31.4C116.299 31.894 116.482 32.4703 116.52 33.129V35.846C116.482 36.492 116.299 37.0683 115.969 37.575C115.653 38.0817 115.222 38.4807 114.677 38.772C114.145 39.0507 113.531 39.19 112.834 39.19ZM113.119 37.575C113.968 37.575 114.652 37.29 115.171 36.72C115.691 36.1373 115.95 35.3963 115.95 34.497C115.95 33.8763 115.83 33.338 115.589 32.882C115.361 32.4133 115.032 32.0523 114.601 31.799C114.171 31.533 113.67 31.4 113.1 31.4C112.53 31.4 112.024 31.533 111.58 31.799C111.15 32.065 110.808 32.4323 110.554 32.901C110.314 33.357 110.193 33.8827 110.193 34.478C110.193 35.086 110.314 35.6243 110.554 36.093C110.808 36.549 111.156 36.91 111.599 37.176C112.043 37.442 112.549 37.575 113.119 37.575ZM115.836 39V36.568L116.159 34.364L115.836 32.179V29.975H117.565V39H115.836ZM120.055 39V29.975H121.765V39H120.055ZM121.765 33.851L121.119 33.566C121.119 32.4133 121.385 31.495 121.917 30.811C122.449 30.127 123.215 29.785 124.216 29.785C124.672 29.785 125.083 29.8673 125.451 30.032C125.818 30.184 126.16 30.4437 126.477 30.811L125.356 31.97C125.166 31.7673 124.957 31.6217 124.729 31.533C124.501 31.4443 124.235 31.4 123.931 31.4C123.297 31.4 122.778 31.6027 122.373 32.008C121.967 32.4133 121.765 33.0277 121.765 33.851Z" fill="white"/>
<path d="M23.9516 39.8863L17.2983 32.4999L23.9516 25.1135" stroke="white" stroke-linecap="round" stroke-linejoin="round"/>
<defs>
<linearGradient id="paint0_linear_813_9" x1="0" y1="32.5" x2="165" y2="32.5" gradientUnits="userSpaceOnUse">
<stop offset="0.2" stop-color="#50376F"/>
<stop offset="0.72" stop-color="#B6264F"/>
</linearGradient>
</defs>
</svg>
