<svg width="386" height="53" viewBox="0 0 386 53" fill="none" xmlns="http://www.w3.org/2000/svg">
<rect width="386" height="53" rx="6" fill="url(#paint0_linear_992_5)"/>
<path d="M154.268 32.448C154.396 32.448 154.508 32.5 154.604 32.604L155.528 33.6C154.824 34.416 153.968 35.052 152.96 35.508C151.96 35.964 150.748 36.192 149.324 36.192C148.092 36.192 146.972 35.98 145.964 35.556C144.956 35.124 144.096 34.524 143.384 33.756C142.672 32.98 142.12 32.052 141.728 30.972C141.336 29.892 141.14 28.704 141.14 27.408C141.14 26.112 141.344 24.924 141.752 23.844C142.16 22.764 142.732 21.836 143.468 21.06C144.212 20.284 145.1 19.684 146.132 19.26C147.164 18.828 148.304 18.612 149.552 18.612C150.776 18.612 151.856 18.808 152.792 19.2C153.728 19.592 154.552 20.124 155.264 20.796L154.496 21.864C154.448 21.944 154.384 22.012 154.304 22.068C154.232 22.116 154.132 22.14 154.004 22.14C153.86 22.14 153.684 22.064 153.476 21.912C153.268 21.752 152.996 21.576 152.66 21.384C152.324 21.192 151.904 21.02 151.4 20.868C150.896 20.708 150.276 20.628 149.54 20.628C148.652 20.628 147.84 20.784 147.104 21.096C146.368 21.4 145.732 21.844 145.196 22.428C144.668 23.012 144.256 23.724 143.96 24.564C143.664 25.404 143.516 26.352 143.516 27.408C143.516 28.48 143.668 29.436 143.972 30.276C144.284 31.116 144.704 31.828 145.232 32.412C145.768 32.988 146.396 33.428 147.116 33.732C147.844 34.036 148.628 34.188 149.468 34.188C149.98 34.188 150.44 34.16 150.848 34.104C151.264 34.04 151.644 33.944 151.988 33.816C152.34 33.688 152.664 33.528 152.96 33.336C153.264 33.136 153.564 32.9 153.86 32.628C153.996 32.508 154.132 32.448 154.268 32.448ZM162.613 23.652C163.501 23.652 164.301 23.8 165.013 24.096C165.725 24.392 166.333 24.812 166.837 25.356C167.341 25.9 167.725 26.56 167.989 27.336C168.261 28.104 168.397 28.964 168.397 29.916C168.397 30.876 168.261 31.74 167.989 32.508C167.725 33.276 167.341 33.932 166.837 34.476C166.333 35.02 165.725 35.44 165.013 35.736C164.301 36.024 163.501 36.168 162.613 36.168C161.717 36.168 160.909 36.024 160.189 35.736C159.477 35.44 158.869 35.02 158.365 34.476C157.861 33.932 157.473 33.276 157.201 32.508C156.937 31.74 156.805 30.876 156.805 29.916C156.805 28.964 156.937 28.104 157.201 27.336C157.473 26.56 157.861 25.9 158.365 25.356C158.869 24.812 159.477 24.392 160.189 24.096C160.909 23.8 161.717 23.652 162.613 23.652ZM162.613 34.5C163.813 34.5 164.709 34.1 165.301 33.3C165.893 32.492 166.189 31.368 166.189 29.928C166.189 28.48 165.893 27.352 165.301 26.544C164.709 25.736 163.813 25.332 162.613 25.332C162.005 25.332 161.473 25.436 161.017 25.644C160.569 25.852 160.193 26.152 159.889 26.544C159.593 26.936 159.369 27.42 159.217 27.996C159.073 28.564 159.001 29.208 159.001 29.928C159.001 31.368 159.297 32.492 159.889 33.3C160.489 34.1 161.397 34.5 162.613 34.5ZM173.122 25.608C173.386 25.312 173.666 25.044 173.962 24.804C174.258 24.564 174.57 24.36 174.898 24.192C175.234 24.016 175.586 23.884 175.954 23.796C176.33 23.7 176.734 23.652 177.166 23.652C177.83 23.652 178.414 23.764 178.918 23.988C179.43 24.204 179.854 24.516 180.19 24.924C180.534 25.324 180.794 25.808 180.97 26.376C181.146 26.944 181.234 27.572 181.234 28.26V36H179.086V28.26C179.086 27.34 178.874 26.628 178.45 26.124C178.034 25.612 177.398 25.356 176.542 25.356C175.91 25.356 175.318 25.508 174.766 25.812C174.222 26.116 173.718 26.528 173.254 27.048V36H171.106V23.844H172.39C172.694 23.844 172.882 23.992 172.954 24.288L173.122 25.608ZM195.605 36H193.469V25.632H187.205V32.928C187.205 33.44 187.329 33.82 187.577 34.068C187.825 34.316 188.145 34.44 188.537 34.44C188.761 34.44 188.953 34.412 189.113 34.356C189.281 34.292 189.425 34.224 189.545 34.152C189.665 34.08 189.765 34.016 189.845 33.96C189.933 33.896 190.009 33.864 190.073 33.864C190.185 33.864 190.285 33.932 190.373 34.068L190.997 35.088C190.629 35.432 190.185 35.704 189.665 35.904C189.145 36.096 188.609 36.192 188.057 36.192C187.097 36.192 186.357 35.924 185.837 35.388C185.325 34.852 185.069 34.08 185.069 33.072V25.632H183.605C183.477 25.632 183.369 25.596 183.281 25.524C183.193 25.444 183.149 25.324 183.149 25.164V24.312L185.141 24.048L185.633 20.304C185.657 20.184 185.709 20.088 185.789 20.016C185.877 19.936 185.989 19.896 186.125 19.896H187.205V24.084H195.605V36ZM196.133 19.944C196.133 20.152 196.089 20.348 196.001 20.532C195.921 20.708 195.809 20.864 195.665 21C195.529 21.136 195.369 21.244 195.185 21.324C195.001 21.404 194.805 21.444 194.597 21.444C194.389 21.444 194.193 21.404 194.009 21.324C193.833 21.244 193.677 21.136 193.541 21C193.405 20.864 193.297 20.708 193.217 20.532C193.137 20.348 193.097 20.152 193.097 19.944C193.097 19.736 193.137 19.54 193.217 19.356C193.297 19.164 193.405 19 193.541 18.864C193.677 18.72 193.833 18.608 194.009 18.528C194.193 18.448 194.389 18.408 194.597 18.408C194.805 18.408 195.001 18.448 195.185 18.528C195.369 18.608 195.529 18.72 195.665 18.864C195.809 19 195.921 19.164 196.001 19.356C196.089 19.54 196.133 19.736 196.133 19.944ZM201.13 25.608C201.394 25.312 201.674 25.044 201.97 24.804C202.266 24.564 202.578 24.36 202.906 24.192C203.242 24.016 203.594 23.884 203.962 23.796C204.338 23.7 204.742 23.652 205.174 23.652C205.838 23.652 206.422 23.764 206.926 23.988C207.438 24.204 207.862 24.516 208.198 24.924C208.542 25.324 208.802 25.808 208.978 26.376C209.154 26.944 209.242 27.572 209.242 28.26V36H207.094V28.26C207.094 27.34 206.882 26.628 206.458 26.124C206.042 25.612 205.406 25.356 204.55 25.356C203.918 25.356 203.326 25.508 202.774 25.812C202.23 26.116 201.726 26.528 201.262 27.048V36H199.114V23.844H200.398C200.702 23.844 200.89 23.992 200.962 24.288L201.13 25.608ZM222.493 23.844V36H221.221C220.917 36 220.725 35.852 220.645 35.556L220.477 34.248C219.949 34.832 219.357 35.304 218.701 35.664C218.045 36.016 217.293 36.192 216.445 36.192C215.781 36.192 215.193 36.084 214.681 35.868C214.177 35.644 213.753 35.332 213.409 34.932C213.065 34.532 212.805 34.048 212.629 33.48C212.461 32.912 212.377 32.284 212.377 31.596V23.844H214.513V31.596C214.513 32.516 214.721 33.228 215.137 33.732C215.561 34.236 216.205 34.488 217.069 34.488C217.701 34.488 218.289 34.34 218.833 34.044C219.385 33.74 219.893 33.324 220.357 32.796V23.844H222.493ZM232.468 30.528C231.484 30.56 230.644 30.64 229.948 30.768C229.26 30.888 228.696 31.048 228.256 31.248C227.824 31.448 227.508 31.684 227.308 31.956C227.116 32.228 227.02 32.532 227.02 32.868C227.02 33.188 227.072 33.464 227.176 33.696C227.28 33.928 227.42 34.12 227.596 34.272C227.78 34.416 227.992 34.524 228.232 34.596C228.48 34.66 228.744 34.692 229.024 34.692C229.4 34.692 229.744 34.656 230.056 34.584C230.368 34.504 230.66 34.392 230.932 34.248C231.212 34.104 231.476 33.932 231.724 33.732C231.98 33.532 232.228 33.304 232.468 33.048V30.528ZM225.568 25.56C226.24 24.912 226.964 24.428 227.74 24.108C228.516 23.788 229.376 23.628 230.32 23.628C231 23.628 231.604 23.74 232.132 23.964C232.66 24.188 233.104 24.5 233.464 24.9C233.824 25.3 234.096 25.784 234.28 26.352C234.464 26.92 234.556 27.544 234.556 28.224V36L233.608 36C233.4 36 233.24 35.968 233.128 35.904C233.016 35.832 232.928 35.696 232.864 35.496L232.624 34.344C232.304 34.64 231.992 34.904 231.688 35.136C231.384 35.36 231.064 35.552 230.728 35.712C230.392 35.864 230.032 35.98 229.648 36.06C229.272 36.148 228.852 36.192 228.388 36.192C227.916 36.192 227.472 36.128 227.056 36C226.64 35.864 226.276 35.664 225.964 35.4C225.66 35.136 225.416 34.804 225.232 34.404C225.056 33.996 224.968 33.516 224.968 32.964C224.968 32.484 225.1 32.024 225.364 31.584C225.628 31.136 226.056 30.74 226.648 30.396C227.24 30.052 228.012 29.772 228.964 29.556C229.916 29.332 231.084 29.204 232.468 29.172V28.224C232.468 27.28 232.264 26.568 231.856 26.088C231.448 25.6 230.852 25.356 230.068 25.356C229.54 25.356 229.096 25.424 228.736 25.56C228.384 25.688 228.076 25.836 227.812 26.004C227.556 26.164 227.332 26.312 227.14 26.448C226.956 26.576 226.772 26.64 226.588 26.64C226.444 26.64 226.32 26.604 226.216 26.532C226.112 26.452 226.024 26.356 225.951 26.244L225.568 25.56ZM239.837 26.28C240.221 25.448 240.693 24.8 241.253 24.336C241.813 23.864 242.497 23.628 243.305 23.628C243.561 23.628 243.805 23.656 244.037 23.712C244.277 23.768 244.489 23.856 244.673 23.976L244.517 25.572C244.469 25.772 244.349 25.872 244.157 25.872C244.045 25.872 243.881 25.848 243.665 25.8C243.449 25.752 243.205 25.728 242.933 25.728C242.549 25.728 242.205 25.784 241.901 25.896C241.605 26.008 241.337 26.176 241.097 26.4C240.865 26.616 240.653 26.888 240.461 27.216C240.277 27.536 240.109 27.904 239.957 28.32V36H237.809V23.844L239.033 23.844C239.265 23.844 239.425 23.888 239.513 23.976C239.601 24.064 239.661 24.216 239.693 24.432L239.837 26.28Z" fill="white"/>
<defs>
<linearGradient id="paint0_linear_992_5" x1="0" y1="26.5" x2="386" y2="26.5" gradientUnits="userSpaceOnUse">
<stop offset="0.2" stop-color="#50376F"/>
<stop offset="0.72" stop-color="#B6264F"/>
</linearGradient>
</defs>
</svg>
