<svg width="695" height="44" viewBox="0 0 695 44" fill="none" xmlns="http://www.w3.org/2000/svg">
<rect width="695" height="44" rx="6" fill="url(#paint0_linear_813_15)"/>
<path d="M330.67 28.42L330.66 30L321.83 30V15.67L330.66 15.67V17.25H323.77V22.01H329.35V23.53H323.77V28.42L330.67 28.42ZM334.36 21.34C334.58 21.0933 334.813 20.87 335.06 20.67C335.306 20.47 335.566 20.3 335.84 20.16C336.12 20.0133 336.413 19.9033 336.72 19.83C337.033 19.75 337.37 19.71 337.73 19.71C338.283 19.71 338.77 19.8033 339.19 19.99C339.616 20.17 339.97 20.43 340.25 20.77C340.536 21.1033 340.753 21.5067 340.9 21.98C341.046 22.4533 341.12 22.9767 341.12 23.55V30H339.33V23.55C339.33 22.7833 339.153 22.19 338.8 21.77C338.453 21.3433 337.923 21.13 337.21 21.13C336.683 21.13 336.19 21.2567 335.73 21.51C335.276 21.7633 334.856 22.1067 334.47 22.54V30H332.68V19.87H333.75C334.003 19.87 334.16 19.9933 334.22 20.24L334.36 21.34ZM352.297 19.87L348.167 30H346.567L342.437 19.87H343.887C344.034 19.87 344.154 19.9067 344.247 19.98C344.34 20.0533 344.404 20.14 344.437 20.24L347.007 26.76C347.087 27.0067 347.157 27.2467 347.217 27.48C347.277 27.7133 347.334 27.9467 347.387 28.18C347.44 27.9467 347.497 27.7133 347.557 27.48C347.617 27.2467 347.69 27.0067 347.777 26.76L350.377 20.24C350.417 20.1333 350.484 20.0467 350.577 19.98C350.67 19.9067 350.78 19.87 350.907 19.87H352.297ZM355.81 19.87V30H354.03V19.87H355.81ZM356.19 16.69C356.19 16.8633 356.153 17.0267 356.08 17.18C356.013 17.3267 355.92 17.46 355.8 17.58C355.686 17.6933 355.55 17.7833 355.39 17.85C355.236 17.9167 355.073 17.95 354.9 17.95C354.726 17.95 354.563 17.9167 354.41 17.85C354.263 17.7833 354.133 17.6933 354.02 17.58C353.906 17.46 353.816 17.3267 353.75 17.18C353.683 17.0267 353.65 16.8633 353.65 16.69C353.65 16.5167 353.683 16.3533 353.75 16.2C353.816 16.04 353.906 15.9033 354.02 15.79C354.133 15.67 354.263 15.5767 354.41 15.51C354.563 15.4433 354.726 15.41 354.9 15.41C355.073 15.41 355.236 15.4433 355.39 15.51C355.55 15.5767 355.686 15.67 355.8 15.79C355.92 15.9033 356.013 16.04 356.08 16.2C356.153 16.3533 356.19 16.5167 356.19 16.69ZM364.224 25.44C363.404 25.4667 362.704 25.5333 362.124 25.64C361.551 25.74 361.081 25.8733 360.714 26.04C360.354 26.2067 360.091 26.4033 359.924 26.63C359.764 26.8567 359.684 27.11 359.684 27.39C359.684 27.6567 359.728 27.8867 359.814 28.08C359.901 28.2733 360.018 28.4333 360.164 28.56C360.318 28.68 360.494 28.77 360.694 28.83C360.901 28.8833 361.121 28.91 361.354 28.91C361.668 28.91 361.954 28.88 362.214 28.82C362.474 28.7533 362.718 28.66 362.944 28.54C363.178 28.42 363.398 28.2767 363.604 28.11C363.818 27.9433 364.024 27.7533 364.224 27.54V25.44ZM358.474 21.3C359.034 20.76 359.638 20.3567 360.284 20.09C360.931 19.8233 361.648 19.69 362.434 19.69C363.001 19.69 363.504 19.7833 363.944 19.97C364.384 20.1567 364.754 20.4167 365.054 20.75C365.354 21.0833 365.581 21.4867 365.734 21.96C365.888 22.4333 365.964 22.9533 365.964 23.52V30H365.174C365.001 30 364.868 29.9733 364.774 29.92C364.681 29.86 364.608 29.7467 364.554 29.58L364.354 28.62C364.088 28.8667 363.828 29.0867 363.574 29.28C363.321 29.4667 363.054 29.6267 362.774 29.76C362.494 29.8867 362.194 29.9833 361.874 30.05C361.561 30.1233 361.211 30.16 360.824 30.16C360.431 30.16 360.061 30.1067 359.714 30C359.368 29.8867 359.064 29.72 358.804 29.5C358.551 29.28 358.348 29.0033 358.194 28.67C358.048 28.33 357.974 27.93 357.974 27.47C357.974 27.07 358.084 26.6867 358.304 26.32C358.524 25.9467 358.881 25.6167 359.374 25.33C359.868 25.0433 360.511 24.81 361.304 24.63C362.098 24.4433 363.071 24.3367 364.224 24.31V23.52C364.224 22.7333 364.054 22.14 363.714 21.74C363.374 21.3333 362.878 21.13 362.224 21.13C361.784 21.13 361.414 21.1867 361.114 21.3C360.821 21.4067 360.564 21.53 360.344 21.67C360.131 21.8033 359.944 21.9267 359.784 22.04C359.631 22.1467 359.478 22.2 359.324 22.2C359.204 22.2 359.101 22.17 359.014 22.11C358.928 22.0433 358.854 21.9633 358.794 21.87L358.474 21.3ZM370.366 21.9C370.686 21.2067 371.079 20.6667 371.546 20.28C372.012 19.8867 372.582 19.69 373.256 19.69C373.469 19.69 373.672 19.7133 373.866 19.76C374.066 19.8067 374.242 19.88 374.396 19.98L374.266 21.31C374.226 21.4767 374.126 21.56 373.966 21.56C373.872 21.56 373.736 21.54 373.556 21.5C373.376 21.46 373.172 21.44 372.946 21.44C372.626 21.44 372.339 21.4867 372.086 21.58C371.839 21.6733 371.616 21.8133 371.416 22C371.222 22.18 371.046 22.4067 370.886 22.68C370.732 22.9467 370.592 23.2533 370.466 23.6V30H368.676V19.87H369.696C369.889 19.87 370.022 19.9067 370.096 19.98C370.169 20.0533 370.219 20.18 370.246 20.36L370.366 21.9Z" fill="white"/>
<defs>
<linearGradient id="paint0_linear_813_15" x1="0" y1="22" x2="695" y2="22" gradientUnits="userSpaceOnUse">
<stop offset="0.2" stop-color="#50376F"/>
<stop offset="0.72" stop-color="#B6264F"/>
</linearGradient>
</defs>
</svg>
