<svg width="100%" height="100%" viewBox="0 70 1439 162" fill="none" xmlns="http://www.w3.org/2000/svg">
<path fill-rule="evenodd" clip-rule="evenodd" d="M0 0C480.333 0 960.669 0 1441 0C1441 40.2239 1441 80.4479 1441 120.672C1403.02 106.676 1363.06 97.4552 1321.11 93.0087C1279.92 88.4902 1238.52 86.3844 1196.89 86.6919C1147.5 86.9551 1098.21 88.9154 1049.05 92.573C983.909 97.4565 918.966 103.555 854.225 110.87C763.01 121.416 671.748 131.726 580.435 141.8C507.322 149.763 433.928 155.717 360.25 159.661C302.989 162.78 245.733 162.78 188.483 159.661C143.454 157.257 99.4555 150.867 56.4872 140.493C36.8786 135.479 18.0496 129.162 0 121.543C0 81.0286 0 40.5143 0 0Z" fill="url(#paint0_linear_992_2)"/>
<defs>
<linearGradient id="paint0_linear_992_2" x1="0" y1="81" x2="1441" y2="81" gradientUnits="userSpaceOnUse">
<stop offset="0.41" stop-color="#347DCE"/>
<stop offset="1" stop-color="white"/>
</linearGradient>
</defs>
</svg>
