<svg width="52" height="32" viewBox="0 0 52 32" fill="none" xmlns="http://www.w3.org/2000/svg">
<path d="M32.75 15V12C32.75 10.1435 32.0125 8.36301 30.6997 7.05025C29.387 5.7375 27.6065 5 25.75 5C23.8935 5 22.113 5.7375 20.8003 7.05025C19.4875 8.36301 18.75 10.1435 18.75 12L18.75 15C18.75 18.3 15.75 19.1 15.75 21C15.75 22.7 19.65 24 25.75 24C31.85 24 35.75 22.7 35.75 21C35.75 19.1 32.75 18.3 32.75 15Z" stroke="#6E7787" stroke-width="2.4" stroke-miterlimit="10" stroke-linecap="square"/>
<path d="M25.7495 25.9999C24.7385 25.9999 23.7885 25.9659 22.8945 25.8999C23.0851 26.5079 23.4648 27.0391 23.9783 27.4163C24.4919 27.7935 25.1124 27.9969 25.7495 27.9969C26.3867 27.9969 27.0072 27.7935 27.5207 27.4163C28.0342 27.0391 28.4139 26.5079 28.6045 25.8999C27.7105 25.9659 26.7605 25.9999 25.7495 25.9999Z" fill="#6E7787"/>
</svg>
