<svg width="24" height="24" viewBox="0 0 24 24" fill="none" xmlns="http://www.w3.org/2000/svg">
<g opacity="0.42">
<path d="M14.5713 11.1428H17.9999" stroke="#171A1F" stroke-width="2.05714" stroke-miterlimit="10" stroke-linecap="square"/>
<path d="M14.5713 14.5715H17.9999" stroke="#171A1F" stroke-width="2.05714" stroke-miterlimit="10" stroke-linecap="square"/>
<path d="M5.14307 16.2858C5.14307 14.8655 6.29421 13.7144 7.71449 13.7144L9.42878 13.7144C10.8491 13.7144 12.0002 14.8655 12.0002 16.2858H5.14307Z" fill="#171A1F"/>
<path d="M17.9999 4.28564C17.9999 5.23279 17.2327 5.99993 16.2856 5.99993C15.3384 5.99993 14.5713 5.23279 14.5713 4.28564L9.42843 4.28564C9.42843 5.23279 8.66129 5.99993 7.71415 5.99993C6.767 5.99993 5.99986 5.23279 5.99986 4.28564L2.57129 4.28564L2.57129 19.7142L21.4284 19.7142L21.4284 4.28564L17.9999 4.28564Z" stroke="#171A1F" stroke-width="2.05714" stroke-miterlimit="10" stroke-linecap="square"/>
<path d="M8.57122 12.857C9.51799 12.857 10.2855 12.0895 10.2855 11.1428C10.2855 10.196 9.51799 9.42847 8.57122 9.42847C7.62445 9.42847 6.85693 10.196 6.85693 11.1428C6.85693 12.0895 7.62445 12.857 8.57122 12.857Z" fill="#171A1F"/>
</g>
</svg>
