<svg width="100" height="97" viewBox="0 0 100 97" fill="none" xmlns="http://www.w3.org/2000/svg">
<path d="M21.429 27.7143C25.3739 27.7143 28.5718 24.6123 28.5718 20.7857C28.5718 16.9592 25.3739 13.8572 21.429 13.8572C17.4841 13.8572 14.2861 16.9592 14.2861 20.7857C14.2861 24.6123 17.4841 27.7143 21.429 27.7143Z" stroke="#9A105C" stroke-width="2.05714" stroke-miterlimit="10" stroke-linecap="square"/>
<path d="M21.429 55.4287C25.3739 55.4287 28.5718 52.3266 28.5718 48.5001C28.5718 44.6736 25.3739 41.5715 21.429 41.5715C17.4841 41.5715 14.2861 44.6736 14.2861 48.5001C14.2861 52.3266 17.4841 55.4287 21.429 55.4287Z" stroke="#9A105C" stroke-width="2.05714" stroke-miterlimit="10" stroke-linecap="square"/>
<path d="M21.429 83.1428C25.3739 83.1428 28.5718 80.0408 28.5718 76.2142C28.5718 72.3877 25.3739 69.2856 21.429 69.2856C17.4841 69.2856 14.2861 72.3877 14.2861 76.2142C14.2861 80.0408 17.4841 83.1428 21.429 83.1428Z" stroke="#9A105C" stroke-width="2.05714" stroke-miterlimit="10" stroke-linecap="square"/>
<path d="M42.8574 20.7856L85.7146 20.7856" stroke="#9A105C" stroke-width="2.05714" stroke-miterlimit="10" stroke-linecap="square"/>
<path d="M42.8574 48.5L85.7146 48.5" stroke="#9A105C" stroke-width="2.05714" stroke-miterlimit="10" stroke-linecap="square"/>
<path d="M42.8574 76.2144L85.7146 76.2144" stroke="#9A105C" stroke-width="2.05714" stroke-miterlimit="10" stroke-linecap="square"/>
</svg>
