<svg width="56" height="57" viewBox="0 0 56 57" fill="none" xmlns="http://www.w3.org/2000/svg">
<path d="M27.9998 31.45C29.7671 31.45 31.1998 30.0174 31.1998 28.25C31.1998 26.4827 29.7671 25.05 27.9998 25.05C26.2325 25.05 24.7998 26.4827 24.7998 28.25C24.7998 30.0174 26.2325 31.45 27.9998 31.45Z" stroke="#6E7787" stroke-width="1.92" stroke-miterlimit="10" stroke-linecap="square"/>
<path d="M36.8002 28.25C36.7999 27.6657 36.7418 27.0828 36.6266 26.51L39.5922 24.33L37.1922 20.17L33.8106 21.6532C32.9353 20.8796 31.9143 20.2889 30.8074 19.9156L30.4002 16.25H25.6002L25.193 19.9156C24.0861 20.2889 23.0651 20.8796 22.1898 21.6532L18.8082 20.17L16.4082 24.33L19.3738 26.5116C19.1423 27.6601 19.1423 28.8431 19.3738 29.9916L16.4082 32.17L18.8082 36.33L22.1898 34.8484C23.0651 35.622 24.0861 36.2127 25.193 36.586L25.6002 40.25H30.4002L30.8074 36.5844C31.9143 36.2111 32.9353 35.6204 33.8106 34.8468L37.1922 36.33L39.5922 32.17L36.6266 29.9884C36.7417 29.4161 36.7998 28.8338 36.8002 28.25Z" stroke="#6E7787" stroke-width="1.92" stroke-miterlimit="10" stroke-linecap="square"/>
</svg>
