<svg width="24" height="24" viewBox="0 0 24 24" fill="none" xmlns="http://www.w3.org/2000/svg">
<path d="M18.857 11.9999C18.8507 11.6605 18.9129 11.3233 19.0399 11.0085C19.1669 10.6937 19.3561 10.4077 19.5962 10.1677C19.8362 9.92762 20.1222 9.73845 20.437 9.61145C20.7518 9.48444 21.089 9.42222 21.4284 9.4285V5.99993C21.4284 5.54527 21.2478 5.10924 20.9263 4.78775C20.6048 4.46626 20.1688 4.28564 19.7141 4.28564L4.28557 4.28564C3.83092 4.28564 3.39488 4.46626 3.07339 4.78775C2.7519 5.10924 2.57129 5.54527 2.57129 5.99993L2.57129 9.4285C3.25327 9.4285 3.90733 9.69942 4.38956 10.1817C4.8718 10.6639 5.14272 11.3179 5.14272 11.9999C5.14272 12.6819 4.8718 13.336 4.38956 13.8182C3.90733 14.3004 3.25327 14.5714 2.57129 14.5714L2.57129 17.9999C2.57129 18.4546 2.7519 18.8906 3.07339 19.2121C3.39488 19.5336 3.83092 19.7142 4.28557 19.7142L19.7141 19.7142C20.1688 19.7142 20.6048 19.5336 20.9263 19.2121C21.2478 18.8906 21.4284 18.4546 21.4284 17.9999V14.5714C21.089 14.5776 20.7518 14.5154 20.437 14.3884C20.1222 14.2614 19.8362 14.0722 19.5962 13.8322C19.3561 13.5922 19.1669 13.3062 19.0399 12.9914C18.9129 12.6765 18.8507 12.3393 18.857 11.9999Z" stroke="#9A105C" stroke-width="2.05714" stroke-miterlimit="10" stroke-linecap="square"/>
<path d="M15.4284 9.42847L8.57129 9.42847L8.57129 14.5713L15.4284 14.5713V9.42847Z" stroke="#9A105C" stroke-width="2.05714" stroke-miterlimit="10" stroke-linecap="square"/>
</svg>
