<svg width="100" height="97" viewBox="0 0 100 97" fill="none" xmlns="http://www.w3.org/2000/svg">
<path d="M57.1496 81.9893L39.2853 76.2143L10.7139 83.1429L10.7139 20.7857L39.2853 13.8572L60.7139 20.7857L89.2853 13.8572V38.1072" stroke="#9A105C" stroke-width="2.05714" stroke-miterlimit="10" stroke-linecap="square"/>
<path d="M89.2853 61.7232C89.2853 69.9197 74.9996 83.1429 74.9996 83.1429C74.9996 83.1429 60.7139 69.9197 60.7139 61.7232C60.7139 53.2599 68.1424 48.5 74.9996 48.5C81.8567 48.5 89.2853 53.2599 89.2853 61.7232Z" stroke="#9A105C" stroke-width="2.05714" stroke-miterlimit="10" stroke-linecap="square"/>
<path d="M75.0001 65.8214C76.9726 65.8214 78.5716 64.2704 78.5716 62.3571C78.5716 60.4438 76.9726 58.8928 75.0001 58.8928C73.0277 58.8928 71.4287 60.4438 71.4287 62.3571C71.4287 64.2704 73.0277 65.8214 75.0001 65.8214Z" fill="#9A105C"/>
</svg>
