<svg width="636" height="530" viewBox="0 0 636 530" fill="none" xmlns="http://www.w3.org/2000/svg">
<path fill-rule="evenodd" clip-rule="evenodd" d="M508.8 -102C510.233 -102 511.665 -102 513.097 -102C515.65 -100.994 516.796 -99.2196 516.535 -96.6763C515.817 -92.6266 514.384 -88.8239 512.238 -85.2684C512.405 -83.2012 513.265 -81.4266 514.816 -79.9446C514.868 -79.5316 515.154 -79.2781 515.676 -79.1841C516.518 -81.1512 516.804 -83.1793 516.535 -85.2684C516.461 -86.0258 516.748 -86.6595 517.395 -87.1697C521.277 -88.9632 524.715 -88.4562 527.708 -85.6486C544.011 -86.8172 552.319 -80.0993 552.632 -65.4946C554.093 -65.3727 555.525 -65.4995 556.93 -65.8749C560.478 -68.4663 564.489 -69.7338 568.962 -69.6775C577.097 -62.0559 580.105 -53.0564 577.987 -42.6787C580.449 -40.5648 582.741 -38.2832 584.862 -35.8339C589.806 -29.2963 590.809 -22.3247 587.87 -14.9194C588.483 -9.49528 589.629 -4.17158 591.308 1.05174C590.671 3.98511 590.242 6.90022 590.019 9.79783C596.035 15.1215 602.051 20.4452 608.068 25.769C611.129 33.6549 614.28 41.5142 617.522 49.3454C622.314 54.5322 626.897 59.8559 631.273 65.3165C633.606 68.459 635.181 71.7544 636 75.2034C636 77.9922 636 80.7803 636 83.5692C633.116 90.4246 628.675 96.5088 622.678 101.822C621.583 103.508 620.723 105.283 620.1 107.146C621.801 117.717 622.374 128.364 621.819 139.088C620.959 140.862 619.527 142.13 617.522 142.89C616.85 143.825 616.421 144.839 616.232 145.933C617.437 147.688 618.296 149.589 618.811 151.637C617.522 155.057 616.233 158.48 614.943 161.904C614.676 167.529 614.963 173.106 615.803 178.635C614.226 183.229 611.217 186.778 606.778 189.283C608.233 190.444 609.81 191.458 611.505 192.325C612.496 194.767 613.07 197.302 613.224 199.93C616.109 202.498 618.115 205.54 619.241 209.057C622.002 217.771 622.861 226.644 621.819 235.675C617.878 245.185 613.008 254.311 607.208 263.054C604.562 265.725 601.41 267.753 597.754 269.138C597.834 272.428 597.834 275.724 597.754 279.025C596.645 280.768 595.213 282.289 593.457 283.588C594.979 289.391 592.83 293.827 587.011 296.898C585.865 297.405 584.719 297.405 583.573 296.898C580.523 294.454 577.801 291.792 575.408 288.912C573.62 290.595 572.473 292.624 571.97 294.996C566.77 299.964 561.469 299.964 556.07 294.996C555.362 297.495 554.932 300.03 554.781 302.602C554.065 303.235 553.348 303.869 552.632 304.503C549.195 304.756 545.757 305.01 542.319 305.264C535.47 312.085 528.307 318.677 520.832 325.037C514.646 327.239 508.344 327.492 501.924 325.798C499.098 324.725 497.665 322.824 497.627 320.094C497.815 319.2 497.529 318.44 496.768 317.812C496.246 317.907 495.96 318.16 495.908 318.573C491.845 325.511 487.978 332.609 484.305 339.868C484.019 342.402 483.732 344.938 483.446 347.473C481.877 348.67 480.014 349.303 477.859 349.374C474.3 352.387 471.149 355.684 468.405 359.261C466.477 359.95 464.472 360.33 462.389 360.402C459.349 359.309 456.198 358.675 452.935 358.501C451.374 365.037 447.219 366.939 440.473 364.205C438.721 354.702 433.134 352.42 423.714 357.36C427.448 361.51 426.875 365.186 421.995 368.387C414.362 371.057 406.483 372.958 398.359 374.091C393.547 373.389 390.253 370.98 388.476 366.866C387.33 366.359 386.184 366.359 385.038 366.866C382.606 371.29 380.171 375.726 377.732 380.176C374.224 383.378 370.357 383.885 366.13 381.697C365.025 384.032 363.593 386.187 361.832 388.161C356.458 389.077 351.015 389.584 345.503 389.682C342.448 390.464 339.44 391.352 336.478 392.344C332.47 391.337 329.462 389.183 327.454 385.88C326.595 385.372 325.735 385.372 324.876 385.88C323.424 391.416 321.562 396.867 319.289 402.231C318.211 402.772 317.208 403.405 316.281 404.132C312.855 404.739 309.561 405.627 306.397 406.794C307.227 415.8 305.364 424.292 300.811 432.272C299.31 432.63 297.877 433.137 296.514 433.793C291.259 437.934 285.53 441.483 279.324 444.44C273.225 445.39 267.495 444.504 262.135 441.779C261.562 442.032 260.989 442.286 260.416 442.539C264.133 445.195 267.428 448.237 270.3 451.665C272.974 457.071 270.969 459.605 264.284 459.271C259.944 458.109 255.503 457.729 250.962 458.13C250.175 458.414 249.458 458.795 248.814 459.271C247.954 461.299 247.095 463.327 246.235 465.355C244.882 466.38 243.307 466.887 241.508 466.876C236.739 465.195 232.155 463.167 227.757 460.792C223.921 461.977 221.199 464.258 219.592 467.637C216.298 470.045 213.002 472.453 209.708 474.862C207.209 475.617 204.63 475.997 201.973 476.002C198.803 475.662 195.653 475.535 192.519 475.622C190.286 478.499 188.71 481.668 187.792 485.129C184.676 486.679 181.382 487.947 177.908 488.931C177.391 492.352 176.388 495.648 174.9 498.818C169.286 503.532 163.986 508.475 159 513.649C156.367 514.595 153.645 515.228 150.835 515.55C148.005 514.977 145.283 514.343 142.67 513.649C140.638 517.985 137.342 521.408 132.786 523.916C131.816 526.421 130.241 528.448 128.059 530C125.767 530 123.476 530 121.184 530C119.339 528.296 118.05 526.267 117.316 523.916C116.834 523.519 116.261 523.266 115.597 523.155C114.024 524.702 112.449 526.35 110.87 528.099C109.438 528.606 108.006 528.606 106.573 528.099C97.1112 523.153 87.9433 517.829 79.0703 512.128C70.832 505.787 66.105 497.801 64.8892 488.171C61.1184 484.462 57.1076 480.912 52.8568 477.523C51.7108 475.495 50.5648 473.468 49.4189 471.439C48.0432 461.04 46.6107 450.646 45.1216 440.258C43.6479 435.874 41.929 431.565 39.9649 427.328C26.3695 405.037 13.0479 382.729 0 360.402C0 357.613 0 354.825 0 352.036C5.56401 333.278 18.7424 327.066 39.5351 333.403C41.1328 334.588 42.422 335.982 43.4027 337.586C45.778 346.281 51.9375 351.225 61.8811 352.416C64.8949 354.131 68.0462 355.652 71.3351 356.98C72.4811 357.487 73.6271 357.487 74.773 356.98C77.6378 355.205 80.5027 353.43 83.3676 351.656C88.0757 345.713 94.0919 341.15 101.416 337.966C113.377 336.753 118.678 330.795 117.316 320.094C118.807 317.966 119.81 315.684 120.324 313.249C118.142 308.887 115.707 304.577 113.019 300.32C112.446 298.546 112.446 296.771 113.019 294.996C116.505 293.038 120.229 291.517 124.192 290.433C125.699 287.497 126.846 284.455 127.63 281.307C129.79 278.196 132.94 276.675 137.084 276.744C140.657 277.346 144.237 277.472 147.827 277.124C149.057 276.77 150.059 276.136 150.835 275.223C152.05 269.926 153.196 264.602 154.273 259.251C160.803 248.056 171.26 242.859 185.643 243.661C190.091 242.606 194.102 240.831 197.676 238.337C205.162 237.033 212.037 238.3 218.303 242.14C223.746 242.647 229.189 242.647 234.632 242.14C235.395 238.63 236.541 235.208 238.07 231.872C236.473 227.934 237.188 224.385 240.219 221.225C246.031 217.606 251.331 213.424 256.119 208.676C262.841 205.684 270.003 204.417 277.605 204.874C281.473 203.48 284.195 201.071 285.77 197.649C287.957 191.17 290.535 184.833 293.505 178.635C298.692 173.68 305.138 171.145 312.843 171.03C317.253 171.454 321.55 172.088 325.735 172.931C328.124 170.41 329.7 167.494 330.462 164.185C330.783 156.793 330.497 149.441 329.603 142.13C333.628 137.307 337.925 132.743 342.495 128.44C342.097 123.38 341.81 118.309 341.635 113.23C343.142 112.373 344.718 111.612 346.362 110.948C347.074 107.425 347.504 103.877 347.651 100.301C348.776 99.0581 349.492 97.6633 349.8 96.1179C348.127 93.0264 346.551 89.8572 345.073 86.6113C343.932 83.0977 343.36 79.5483 343.354 75.9639C345.486 74.5843 347.922 74.0778 350.659 74.4428C350.094 72.4229 349.521 70.3953 348.941 68.3586C349.714 65.0959 352.005 63.9551 355.816 64.9362C358.354 67.0604 361.22 68.7084 364.411 69.8797C366.615 69.5762 367.762 68.4354 367.849 66.4573C366.675 63.6342 365.099 60.9723 363.122 58.4717C362.978 57.3309 362.835 56.1901 362.692 55.0493C364.59 49.2533 366.309 43.4224 367.849 37.5572C366.768 32.0821 365.479 26.6322 363.981 21.2058C363.408 18.1637 363.408 15.1215 363.981 12.0794C367.66 9.21907 371.958 7.69801 376.873 7.51624C376.864 1.40919 376.577 -4.67505 376.014 -10.7365C378.739 -14.4197 380.888 -18.3486 382.459 -22.5247C382.352 -23.7621 381.922 -24.9028 381.17 -25.9471C377.881 -28.0967 375.589 -30.8853 374.295 -34.3129C372.221 -41.9656 370.072 -49.5709 367.849 -57.1288C367.213 -60.2379 368.358 -62.6462 371.286 -64.3538C375.228 -64.5037 379.096 -64.884 382.889 -65.4946C382.774 -68.7626 381.628 -71.8047 379.451 -74.6209C378.211 -78.2046 379.213 -81.1199 382.459 -83.367C387.33 -83.8741 392.2 -83.8741 397.07 -83.367C397.858 -83.0824 398.574 -82.7022 399.219 -82.2262C400.029 -79.9881 401.031 -77.8333 402.227 -75.7617C406.847 -75.7904 411.144 -74.7763 415.119 -72.7196C417.568 -70.4257 420.146 -68.2708 422.854 -66.2551C429.336 -68.3113 432.631 -72.3675 432.738 -78.4236C434.285 -81.2642 436.863 -82.5317 440.473 -82.2262C442.928 -81.8705 445.364 -81.7437 447.778 -81.846C452.239 -87.4958 458.255 -89.5238 465.827 -87.9302C469.366 -86.4435 472.232 -84.2887 474.422 -81.4657C475.978 -82.4083 477.697 -82.9153 479.578 -82.9868C482.167 -82.4755 484.745 -81.9685 487.314 -81.4657C486.289 -83.7946 485 -86.0762 483.446 -88.3105C482.366 -92.1724 484.085 -93.947 488.603 -93.6342C491.892 -93.0721 495.186 -92.9454 498.486 -93.2539C502.356 -95.7909 505.794 -98.7063 508.8 -102Z" fill="#9A105C"/>
</svg>
