<svg width="614" height="491" viewBox="0 0 614 491" fill="none" xmlns="http://www.w3.org/2000/svg">
<path fill-rule="evenodd" clip-rule="evenodd" d="M491.2 -149C492.583 -149 493.966 -149 495.349 -149C497.813 -147.981 498.919 -146.184 498.668 -143.609C497.974 -139.508 496.591 -135.657 494.519 -132.057C494.681 -129.963 495.51 -128.166 497.008 -126.665C497.058 -126.247 497.334 -125.99 497.838 -125.895C498.651 -127.887 498.927 -129.941 498.668 -132.057C498.596 -132.824 498.873 -133.465 499.497 -133.982C503.245 -135.798 506.564 -135.285 509.454 -132.442C525.193 -133.625 533.213 -126.822 533.516 -112.032C534.926 -111.909 536.309 -112.037 537.665 -112.418C541.09 -115.042 544.962 -116.325 549.281 -116.268C557.134 -108.55 560.039 -99.4368 557.993 -88.9278C560.37 -86.7871 562.583 -84.4767 564.631 -81.9964C569.404 -75.376 570.372 -68.3161 567.535 -60.8171C568.127 -55.3243 569.233 -49.9332 570.854 -44.6438C570.239 -41.6733 569.824 -38.7213 569.609 -35.787C575.418 -30.3959 581.226 -25.0048 587.034 -19.6137C589.989 -11.628 593.031 -3.66916 596.161 4.26114C600.787 9.51361 605.212 14.9047 609.437 20.4344C611.688 23.6167 613.209 26.9538 614 30.4465C614 33.2706 614 36.094 614 38.9182C611.215 45.8604 606.928 52.0216 601.139 57.4019C600.081 59.1094 599.252 60.9069 598.65 62.793C600.292 73.4982 600.846 84.2804 600.31 95.1396C599.48 96.9364 598.097 98.2202 596.161 98.9904C595.513 99.9369 595.098 100.964 594.916 102.071C596.079 103.849 596.908 105.774 597.405 107.847C596.162 111.311 594.917 114.777 593.672 118.244C593.414 123.94 593.691 129.589 594.501 135.188C592.979 139.839 590.075 143.434 585.789 145.97C587.194 147.146 588.716 148.173 590.353 149.051C591.309 151.524 591.863 154.09 592.012 156.752C594.797 159.352 596.733 162.433 597.82 165.994C600.486 174.818 601.316 183.804 600.31 192.949C596.505 202.579 591.803 211.821 586.204 220.675C583.649 223.38 580.607 225.433 577.077 226.836C577.154 230.168 577.154 233.505 577.077 236.848C576.007 238.614 574.624 240.154 572.928 241.469C574.398 247.345 572.323 251.837 566.705 254.947C565.599 255.461 564.493 255.461 563.387 254.947C560.442 252.473 557.814 249.777 555.504 246.86C553.777 248.565 552.671 250.619 552.185 253.022C547.164 258.052 542.047 258.052 536.835 253.022C536.151 255.552 535.737 258.119 535.591 260.723C534.899 261.365 534.207 262.007 533.516 262.649C530.197 262.905 526.878 263.162 523.559 263.419C516.947 270.327 510.032 277.002 502.816 283.443C496.844 285.672 490.759 285.929 484.562 284.213C481.833 283.127 480.45 281.202 480.414 278.437C480.595 277.532 480.319 276.762 479.584 276.126C479.08 276.222 478.804 276.478 478.754 276.897C474.832 283.923 471.098 291.111 467.553 298.461C467.276 301.028 466.999 303.596 466.723 306.162C465.208 307.375 463.41 308.016 461.33 308.088C457.893 311.139 454.851 314.477 452.203 318.1C450.341 318.798 448.405 319.183 446.395 319.255C443.46 318.148 440.417 317.506 437.268 317.33C435.76 323.949 431.749 325.875 425.237 323.106C423.545 313.483 418.151 311.172 409.057 316.175C412.662 320.377 412.108 324.099 407.397 327.342C400.028 330.045 392.422 331.97 384.58 333.118C379.934 332.406 376.754 329.967 375.038 325.801C373.932 325.288 372.825 325.288 371.719 325.801C369.371 330.281 367.02 334.773 364.666 339.279C361.279 342.522 357.545 343.035 353.465 340.82C352.399 343.185 351.016 345.367 349.316 347.366C344.128 348.293 338.873 348.807 333.551 348.906C330.602 349.698 327.698 350.597 324.839 351.602C320.969 350.582 318.065 348.4 316.127 345.055C315.297 344.542 314.468 344.542 313.638 345.055C312.236 350.662 310.438 356.182 308.245 361.614C307.203 362.161 306.236 362.803 305.341 363.539C302.033 364.154 298.853 365.052 295.799 366.235C296.599 375.354 294.801 383.954 290.405 392.035C288.957 392.398 287.574 392.911 286.257 393.575C281.184 397.769 275.653 401.363 269.662 404.357C263.774 405.319 258.242 404.421 253.068 401.662C252.514 401.918 251.962 402.176 251.408 402.432C254.997 405.121 258.177 408.202 260.95 411.674C263.531 417.147 261.596 419.714 255.142 419.375C250.952 418.199 246.665 417.814 242.281 418.22C241.521 418.508 240.829 418.893 240.207 419.375C239.377 421.43 238.547 423.483 237.718 425.537C236.412 426.575 234.891 427.088 233.154 427.077C228.55 425.375 224.125 423.321 219.878 420.916C216.175 422.116 213.548 424.426 211.996 427.847C208.816 430.286 205.634 432.725 202.454 435.164C200.041 435.928 197.552 436.314 194.986 436.319C191.926 435.975 188.885 435.846 185.859 435.934C183.704 438.847 182.182 442.057 181.296 445.561C178.288 447.13 175.108 448.414 171.754 449.412C171.255 452.876 170.286 456.214 168.85 459.424C163.43 464.197 158.313 469.203 153.5 474.442C150.958 475.4 148.33 476.041 145.618 476.367C142.885 475.787 140.258 475.145 137.735 474.442C135.773 478.833 132.592 482.299 128.193 484.839C127.256 487.376 125.736 489.429 123.63 491C121.417 491 119.205 491 116.992 491C115.211 489.274 113.967 487.22 113.258 484.839C112.793 484.437 112.239 484.18 111.599 484.069C110.08 485.635 108.559 487.304 107.035 489.075C105.652 489.588 104.27 489.588 102.886 489.075C93.752 484.066 84.9013 478.675 76.3351 472.901C68.3818 466.481 63.8183 458.394 62.6446 448.641C59.0042 444.885 55.1321 441.291 51.0284 437.859C49.9221 435.805 48.8157 433.752 47.7095 431.698C46.3813 421.167 44.9984 410.642 43.5608 400.122C42.1381 395.682 40.4786 391.319 38.5824 387.029C25.4574 364.456 12.5965 341.865 0 319.255C0 316.431 0 313.608 0 310.783C5.37155 291.788 18.0941 285.498 38.1676 291.915C39.7099 293.115 40.9545 294.526 41.9014 296.15C44.1945 304.956 50.1409 309.962 59.7405 311.168C62.6501 312.904 65.6924 314.445 68.8676 315.789C69.9738 316.303 71.0802 316.303 72.1865 315.789C74.9522 313.993 77.718 312.195 80.4838 310.398C85.029 304.38 90.8372 299.759 97.9081 296.536C109.455 295.307 114.572 289.274 113.258 278.437C114.697 276.282 115.665 273.971 116.162 271.505C114.055 267.088 111.705 262.723 109.109 258.413C108.556 256.616 108.556 254.818 109.109 253.022C112.475 251.039 116.07 249.498 119.896 248.401C121.351 245.427 122.458 242.347 123.215 239.159C125.3 236.009 128.342 234.469 132.342 234.538C135.791 235.148 139.248 235.276 142.714 234.923C143.901 234.565 144.868 233.923 145.618 232.998C146.791 227.633 147.897 222.242 148.936 216.824C155.241 205.487 165.336 200.224 179.222 201.036C183.515 199.968 187.388 198.171 190.838 195.645C198.065 194.324 204.703 195.607 210.751 199.496C216.006 200.009 221.262 200.009 226.516 199.496C227.252 195.942 228.359 192.477 229.835 189.099C228.293 185.111 228.984 181.517 231.909 178.316C237.52 174.652 242.637 170.416 247.259 165.609C253.749 162.579 260.663 161.295 268.003 161.758C271.737 160.346 274.364 157.907 275.885 154.442C277.996 147.881 280.485 141.464 283.353 135.188C288.36 130.169 294.583 127.602 302.022 127.486C306.279 127.916 310.428 128.557 314.468 129.412C316.773 126.858 318.295 123.906 319.031 120.555C319.341 113.069 319.064 105.624 318.201 98.2202C322.087 93.3359 326.236 88.715 330.647 84.3574C330.263 79.2328 329.986 74.0981 329.818 68.9543C331.272 68.0863 332.794 67.3162 334.381 66.6438C335.068 63.0764 335.483 59.4829 335.626 55.8616C336.711 54.6032 337.403 53.1907 337.7 51.6258C336.085 48.4951 334.564 45.2858 333.137 41.9988C332.035 38.4407 331.483 34.8464 331.477 31.2166C333.536 29.8195 335.887 29.3066 338.53 29.6763C337.984 27.6308 337.43 25.5775 336.87 23.515C337.617 20.2111 339.829 19.0558 343.508 20.0493C345.958 22.2004 348.725 23.8693 351.805 25.0554C353.934 24.7481 355.041 23.5928 355.124 21.5897C353.991 18.7308 352.47 16.0353 350.561 13.503C350.422 12.3478 350.285 11.1925 350.146 10.0373C351.978 4.16794 353.637 -1.73685 355.124 -7.67628C354.081 -13.2206 352.837 -18.7396 351.391 -24.2346C350.837 -27.3153 350.837 -30.3959 351.391 -33.4765C354.943 -36.3731 359.091 -37.9134 363.836 -38.0975C363.827 -44.2818 363.551 -50.4431 363.007 -56.5812C365.638 -60.3111 367.712 -64.2897 369.23 -68.5187C369.126 -69.7717 368.711 -70.9269 367.985 -71.9844C364.81 -74.1612 362.597 -76.9851 361.347 -80.4561C359.345 -88.2057 357.271 -95.9073 355.124 -103.561C354.51 -106.709 355.616 -109.148 358.443 -110.877C362.248 -111.029 365.982 -111.414 369.645 -112.032C369.533 -115.342 368.427 -118.422 366.326 -121.274C365.128 -124.903 366.096 -127.856 369.23 -130.131C373.932 -130.645 378.633 -130.645 383.335 -130.131C384.095 -129.843 384.787 -129.458 385.409 -128.976C386.191 -126.709 387.159 -124.527 388.314 -122.43C392.773 -122.459 396.922 -121.432 400.759 -119.349C403.123 -117.026 405.613 -114.844 408.227 -112.803C414.485 -114.885 417.666 -118.992 417.769 -125.125C419.262 -128.002 421.752 -129.285 425.237 -128.976C427.607 -128.616 429.958 -128.487 432.289 -128.591C436.595 -134.312 442.404 -136.366 449.714 -134.752C453.13 -133.247 455.897 -131.065 458.011 -128.206C459.513 -129.16 461.173 -129.674 462.989 -129.746C465.488 -129.228 467.978 -128.715 470.457 -128.206C469.468 -130.564 468.223 -132.875 466.723 -135.137C465.68 -139.048 467.339 -140.845 471.701 -140.528C474.877 -139.959 478.057 -139.831 481.243 -140.143C484.979 -142.712 488.298 -145.665 491.2 -149Z" fill="#13496A"/>
</svg>

