<svg width="50" height="48" viewBox="0 0 50 48" fill="none" xmlns="http://www.w3.org/2000/svg">
<rect width="50" height="48" rx="24" fill="#F3F4F6"/>
<path d="M27.5718 26.5715L22.429 26.5715C19.5884 26.5715 17.2861 28.8738 17.2861 31.7144V32.5715C17.2861 32.5715 19.9647 33.4287 25.0004 33.4287C30.0361 33.4287 32.7147 32.5715 32.7147 32.5715V31.7144C32.7147 28.8738 30.4124 26.5715 27.5718 26.5715Z" stroke="#171A1F" stroke-width="2.05714" stroke-miterlimit="10" stroke-linecap="square"/>
<path d="M20.7139 18.8572C20.7139 16.4907 22.633 14.5715 24.9996 14.5715C27.3662 14.5715 29.2853 16.4907 29.2853 18.8572C29.2853 21.2238 27.3662 24.0001 24.9996 24.0001C22.633 24.0001 20.7139 21.2238 20.7139 18.8572Z" stroke="#171A1F" stroke-width="2.05714" stroke-miterlimit="10" stroke-linecap="square"/>
</svg>
